<?xml version="1.0" standalone="no"?>
<!DOCTYPE svg PUBLIC "-//W3C//DTD SVG 20010904//EN"
 "http://www.w3.org/TR/2001/REC-SVG-20010904/DTD/svg10.dtd">
<svg version="1.0" xmlns="http://www.w3.org/2000/svg"
 width="2998.000000pt" height="450.000000pt" viewBox="0 0 2998.000000 450.000000"
 preserveAspectRatio="xMidYMid meet">

<g transform="translate(0.000000,450.000000) scale(0.100000,-0.100000)"
fill="#000000" stroke="none">
<path d="M0 2250 l0 -2250 14990 0 14990 0 0 2250 0 2250 -14990 0 -14990 0 0
-2250z m18407 1775 c15 -8 60 -26 99 -40 51 -18 81 -37 110 -68 94 -98 173
-223 193 -304 5 -21 21 -69 35 -107 17 -46 26 -88 25 -125 -1 -62 -1 -62 -40
69 -57 194 -163 358 -292 454 -174 129 -392 125 -584 -11 -64 -45 -183 -191
-183 -224 0 -10 -9 -39 -21 -66 -72 -163 -113 -343 -129 -563 -13 -176 -13
-177 8 -198 9 -10 18 -29 20 -42 4 -40 50 -130 90 -179 20 -25 69 -81 108
-124 112 -121 174 -258 174 -382 0 -69 -10 -85 -55 -85 -56 0 -72 21 -77 102
-9 140 -85 252 -278 408 -112 91 -149 130 -179 192 -28 60 -51 167 -51 249 0
151 62 453 123 594 106 246 259 394 450 436 32 7 60 16 63 21 3 4 86 8 184 8
137 0 185 -3 207 -15z m-104 -372 c-7 -2 -21 -2 -30 0 -10 3 -4 5 12 5 17 0
24 -2 18 -5z m2352 -103 c-4 -6 17 -10 57 -10 40 0 58 -3 49 -9 -9 -6 26 -11
95 -15 167 -10 177 -13 69 -16 -55 -1 -178 -5 -273 -9 -172 -6 -196 -2 -141
26 13 7 38 13 55 13 16 0 39 7 50 15 22 16 48 20 39 5z m78 3 c-7 -2 -21 -2
-30 0 -10 3 -4 5 12 5 17 0 24 -2 18 -5z m44 1 c-3 -3 -12 -4 -19 -1 -8 3 -5
6 6 6 11 1 17 -2 13 -5z m-310 -156 c-3 -7 -5 -2 -5 12 0 14 2 19 5 13 2 -7 2
-19 0 -25z m1163 -463 c0 -16 -27 -32 -37 -21 -7 7 16 36 28 36 5 0 9 -7 9
-15z m66 -29 c-5 -19 4 -35 37 -72 23 -27 55 -66 71 -87 25 -34 33 -38 60 -34
17 3 47 -2 66 -10 19 -8 59 -15 89 -15 47 -1 58 3 77 25 18 21 24 24 34 13 21
-26 90 9 90 46 0 10 7 18 15 18 8 0 15 -6 15 -14 0 -15 33 -39 70 -51 14 -4
36 -18 49 -31 13 -13 28 -24 32 -24 5 0 9 -4 9 -9 0 -11 -34 -24 -70 -27 -54
-4 -209 -41 -223 -54 -4 -4 19 -25 52 -46 59 -38 77 -64 46 -64 -25 0 -17 -36
10 -48 14 -7 59 -12 98 -12 63 0 88 -6 182 -44 128 -51 251 -111 260 -126 3
-5 16 -10 29 -10 12 0 33 -11 46 -25 13 -14 33 -25 45 -25 17 0 22 -6 22 -27
1 -16 4 -46 7 -68 8 -47 -6 -77 -26 -57 -6 6 -22 12 -35 12 -12 0 -27 9 -33
19 -14 27 -39 51 -53 51 -7 0 -4 -7 6 -14 9 -7 17 -16 17 -20 0 -13 -22 -5
-85 34 -36 22 -70 40 -75 40 -14 0 -13 -13 2 -28 22 -22 -5 -12 -118 44 -90
44 -120 64 -146 99 -18 24 -52 56 -75 71 -23 14 -68 52 -98 83 -55 56 -115
100 -115 84 0 -4 33 -44 72 -88 70 -78 71 -80 45 -83 -18 -2 -38 5 -58 22 -16
14 -69 46 -117 72 -48 26 -100 57 -117 69 -16 12 -43 24 -60 28 -61 12 -85 27
-125 81 -22 31 -47 56 -54 56 -7 0 -20 8 -27 17 -13 15 -11 16 11 9 56 -16 56
-16 57 26 2 49 -16 87 -56 119 -36 28 -44 67 -11 49 22 -12 27 -1 8 18 -10 10
-10 15 2 22 8 5 23 10 34 10 14 0 17 -5 12 -24z m541 -10 c-4 -9 -11 -16 -17
-16 -11 0 -14 33 -3 44 11 10 26 -11 20 -28z m-987 4 c0 -5 -4 -10 -10 -10 -5
0 -10 5 -10 10 0 6 5 10 10 10 6 0 10 -4 10 -10z m-670 -10 c0 -5 -4 -10 -10
-10 -5 0 -10 5 -10 10 0 6 5 10 10 10 6 0 10 -4 10 -10z m1750 -37 c45 -43 53
-76 18 -71 -16 2 -24 11 -26 29 -2 16 -14 32 -33 43 -16 9 -27 22 -24 27 10
16 24 10 65 -28z m-230 -33 c0 -5 -4 -10 -10 -10 -5 0 -10 5 -10 10 0 6 5 10
10 10 6 0 10 -4 10 -10z m-642 -37 c13 -8 22 -17 19 -19 -5 -5 -87 35 -87 43
0 7 43 -8 68 -24z m1052 17 c0 -5 -7 -10 -16 -10 -8 0 -12 5 -9 10 3 6 10 10
16 10 5 0 9 -4 9 -10z m-1205 -40 c8 -13 -15 -13 -35 0 -12 8 -11 10 7 10 12
0 25 -4 28 -10z m1310 -10 c3 -5 -1 -10 -10 -10 -9 0 -13 5 -10 10 3 6 8 10
10 10 2 0 7 -4 10 -10z m-12387 -57 c3 -31 2 -32 -40 -35 -40 -3 -43 -5 -46
-35 -3 -32 -2 -33 37 -33 40 0 41 -1 41 -35 0 -34 -1 -35 -40 -35 l-40 0 0
-120 0 -120 -45 0 -45 0 0 120 0 120 -25 0 c-21 0 -25 5 -25 29 0 23 5 30 23
33 17 2 23 10 25 38 2 28 20 89 26 90 0 0 18 6 39 14 21 7 54 10 75 7 33 -6
37 -10 40 -38z m12175 27 c3 -11 4 -20 3 -20 -2 0 -11 9 -21 20 -15 17 -16 20
-3 20 9 0 18 -9 21 -20z m-13389 -6 c30 -29 17 -68 -26 -79 -33 -8 -71 25 -61
52 16 45 57 58 87 27z m486 -174 c0 -194 0 -196 38 -191 7 1 12 -11 12 -32 0
-30 -4 -35 -27 -40 -47 -9 -83 3 -98 34 -12 22 -15 72 -15 224 l0 195 45 0 45
0 0 -190z m5664 175 c3 -9 18 -15 39 -15 84 0 198 -70 252 -155 l33 -51 109
-12 c190 -22 362 -67 435 -115 28 -19 59 -52 78 -84 56 -91 64 -126 65 -263 0
-112 -2 -130 -23 -170 -46 -88 -87 -116 -222 -151 -45 -11 -98 -28 -118 -37
-62 -26 -134 -10 -129 30 4 38 -35 50 -148 43 -330 -18 -357 -18 -446 3 -48
12 -112 33 -143 48 -112 53 -196 155 -196 239 0 41 -5 42 -66 13 l-46 -23 5
-58 c10 -109 77 -206 178 -258 48 -24 168 -48 243 -49 l48 0 -23 -25 c-25 -26
-58 -32 -76 -14 -9 9 -168 12 -363 5 -58 -2 -170 15 -170 25 0 6 -4 8 -8 5 -5
-3 -44 9 -88 26 -43 17 -92 31 -109 31 -16 0 -35 7 -42 16 -18 23 -17 251 1
294 17 42 68 81 178 137 84 43 88 47 109 98 12 30 30 70 40 90 11 20 19 41 19
47 0 11 43 73 100 147 41 52 153 142 207 165 55 23 97 31 189 32 64 1 83 -2
88 -14z m7292 -16 c7 -12 -15 -31 -28 -23 -4 3 -8 12 -8 20 0 17 26 19 36 3z
m-15026 -39 l0 -40 -90 0 -90 0 0 -45 0 -45 75 0 75 0 0 -35 0 -35 -75 0 -75
0 0 -55 0 -55 89 0 89 0 4 -35 4 -35 -138 0 -138 0 0 210 0 210 135 0 135 0 0
-40z m3874 30 c21 -8 26 -16 26 -46 0 -33 -2 -36 -22 -30 -140 40 -218 -6
-218 -127 0 -96 37 -137 125 -137 l45 0 0 50 0 50 -40 0 c-38 0 -40 2 -40 30
l0 30 85 0 85 0 0 -99 c0 -115 -2 -117 -87 -133 -164 -30 -267 49 -266 206 1
104 31 160 108 200 34 18 159 22 199 6z m-2504 -60 l0 -40 40 0 c39 0 40 -1
40 -35 0 -34 -1 -35 -40 -35 l-40 0 0 -80 c0 -86 11 -103 62 -97 19 2 23 -3
23 -27 0 -24 -5 -31 -30 -38 -42 -12 -100 0 -122 24 -14 16 -19 40 -21 119 -4
98 -4 99 -29 99 -21 0 -24 4 -21 27 2 18 10 29 23 32 26 4 35 19 35 59 0 31 2
32 40 32 l40 0 0 -40z m-1114 -51 c8 -6 14 -22 14 -34 0 -22 -3 -23 -62 -22
-56 2 -63 0 -66 -18 -2 -16 7 -24 45 -37 66 -24 93 -51 93 -94 0 -19 -5 -44
-10 -55 -24 -44 -117 -63 -189 -38 -25 9 -31 17 -31 39 l0 28 72 -2 c61 -1 73
2 76 16 2 13 -14 25 -61 47 -65 29 -87 52 -87 90 0 64 60 105 144 96 26 -2 54
-10 62 -16z m259 5 c8 -4 15 -19 15 -34 0 -28 0 -28 -62 -27 -52 2 -63 -1 -66
-15 -3 -14 12 -24 57 -44 46 -20 63 -34 76 -60 32 -68 -26 -134 -118 -134 -24
0 -58 5 -76 11 -25 9 -31 17 -31 39 l0 28 72 -2 c61 -1 73 2 76 16 2 13 -14
25 -61 47 -84 37 -104 73 -76 135 22 47 122 67 194 40z m281 0 c44 -21 64 -60
64 -124 l0 -50 -95 0 c-101 0 -110 -5 -81 -46 12 -16 27 -19 94 -19 78 1 79 1
76 -23 -4 -37 -16 -44 -86 -49 -134 -11 -195 56 -177 196 14 103 113 159 205
115z m382 -19 c20 -24 22 -36 22 -156 l0 -129 -45 0 -45 0 0 109 c0 86 -3 113
-16 125 -18 19 -22 19 -63 5 l-31 -11 0 -114 0 -114 -45 0 -45 0 0 155 0 155
35 0 c22 0 38 -6 41 -15 5 -12 10 -12 27 -3 66 35 130 32 165 -7z m674 24 c57
-15 68 -45 68 -189 l0 -120 -40 0 c-22 0 -40 5 -40 10 0 6 -13 4 -30 -5 -48
-25 -97 -19 -131 14 -32 33 -37 67 -15 110 19 35 55 51 116 51 49 0 50 1 50
30 0 23 -5 31 -25 36 -26 6 -88 0 -120 -12 -14 -6 -16 -1 -13 27 3 31 7 35 48
46 58 15 86 15 132 2z m481 0 c32 -8 37 -14 37 -39 l0 -28 -62 1 c-52 2 -63
-1 -66 -16 -3 -13 12 -24 61 -46 35 -16 67 -36 71 -46 9 -25 7 -74 -4 -96 -24
-44 -117 -63 -189 -38 -25 9 -31 17 -31 39 l0 28 72 -2 c61 -1 73 2 76 16 2
13 -14 25 -61 47 -36 16 -70 38 -76 49 -26 48 -4 104 48 126 43 18 74 19 124
5z m679 -1 c59 -18 91 -65 96 -142 5 -103 -43 -165 -136 -174 -62 -6 -114 18
-143 64 -18 29 -21 47 -17 109 3 66 7 77 33 105 44 46 99 59 167 38z m1160 1
c57 -15 68 -45 68 -189 l0 -120 -40 0 c-22 0 -40 5 -40 10 0 6 -13 4 -30 -5
-48 -25 -97 -19 -131 14 -32 33 -37 67 -15 110 19 35 55 51 116 51 49 0 50 1
50 30 0 23 -5 31 -25 36 -26 6 -88 0 -120 -12 -14 -6 -16 -1 -13 27 3 31 7 35
48 46 58 15 86 15 132 2z m371 0 c12 -7 25 -17 29 -22 4 -7 11 -7 20 0 22 19
95 36 122 29 14 -3 35 -16 46 -28 18 -20 20 -35 20 -155 l0 -133 -45 0 -45 0
0 115 c0 114 0 116 -25 125 -16 6 -34 6 -50 0 -25 -9 -25 -11 -25 -125 l0
-115 -45 0 -45 0 0 115 c0 101 -2 115 -18 124 -11 6 -32 7 -48 2 l-29 -7 -3
-117 -3 -117 -44 0 -45 0 0 155 0 155 40 0 c29 0 40 -4 40 -15 0 -13 4 -14 22
-4 53 28 99 35 131 18z m502 -3 c44 -19 67 -63 63 -124 l-3 -47 -92 -3 c-98
-3 -107 -8 -77 -47 13 -17 26 -20 92 -20 l78 1 -4 -27 c-5 -33 -41 -49 -109
-49 -60 0 -109 23 -133 62 -18 27 -21 46 -18 110 3 69 6 80 33 108 45 47 110
61 170 36z m528 3 c32 -8 37 -14 37 -39 l0 -28 -62 1 c-52 2 -63 -1 -66 -16
-3 -13 10 -24 51 -41 30 -14 61 -32 70 -41 19 -18 22 -76 7 -106 -24 -44 -117
-63 -189 -38 -25 9 -31 17 -31 39 l0 28 72 -2 c61 -1 73 2 76 16 2 13 -14 25
-61 47 -86 38 -109 85 -71 140 32 45 96 60 167 40z m-3983 -154 l0 -155 -45 0
-45 0 0 155 0 155 45 0 45 0 0 -155z m1660 135 c0 -11 3 -20 6 -20 3 0 17 9
31 20 14 11 39 20 54 20 27 0 29 -3 29 -40 0 -38 -1 -40 -32 -40 -78 0 -78 0
-78 -121 l0 -109 -45 0 -45 0 0 155 0 155 40 0 c33 0 40 -3 40 -20z m1990 0
c0 -11 3 -20 6 -20 3 0 17 9 31 20 14 11 39 20 54 20 28 0 29 -2 29 -44 0 -39
-2 -44 -20 -39 -11 3 -36 2 -55 -1 l-35 -7 0 -109 0 -110 -45 0 -45 0 0 155 0
155 40 0 c33 0 40 -3 40 -20z m9020 10 c0 -5 -2 -10 -4 -10 -3 0 -8 5 -11 10
-3 6 -1 10 4 10 6 0 11 -4 11 -10z m3640 -11 c63 -6 118 -13 122 -15 4 -3 46
-7 94 -9 90 -5 322 -48 354 -65 26 -14 124 -231 156 -345 83 -294 114 -474
114 -656 0 -212 -28 -326 -98 -401 -36 -39 -51 -48 -78 -48 -44 0 -52 13 -115
195 -119 345 -236 574 -379 745 -63 75 -99 138 -100 175 0 11 14 93 32 183 25
126 29 165 20 174 -9 9 -12 7 -12 -12 0 -37 -69 -348 -81 -368 -6 -9 -23 -26
-37 -37 -25 -19 -45 -20 -337 -23 -170 -2 -325 0 -343 3 -27 5 -92 54 -92 69
0 16 -72 335 -80 351 -17 39 -10 -25 19 -170 29 -143 31 -198 6 -244 -8 -14
-46 -64 -84 -110 -137 -163 -273 -436 -376 -751 -47 -144 -60 -168 -91 -181
-21 -7 -32 -5 -57 13 -96 67 -120 136 -134 383 -8 154 17 355 67 550 12 44 25
96 29 115 26 114 140 373 171 390 24 13 252 58 330 65 36 3 102 11 148 17 199
25 613 29 832 7z m-3599 -25 c7 -8 30 -24 51 -35 41 -21 50 -39 19 -39 -18 0
-64 37 -90 73 -17 21 2 23 20 1z m-4251 -177 c0 -5 -4 -5 -10 -2 -5 3 -10 14
-10 23 0 15 2 15 10 2 5 -8 10 -19 10 -23z m26 -71 c-2 -6 -8 0 -14 14 -5 14
-7 29 -4 34 7 12 24 -33 18 -48z m32 -37 c19 -30 11 -32 -11 -3 -10 13 -14 24
-10 24 5 0 14 -9 21 -21z m4262 -3 c0 -3 -4 -8 -10 -11 -5 -3 -10 -1 -10 4 0
6 5 11 10 11 6 0 10 -2 10 -4z m37 -2 c-3 -3 -12 -4 -19 -1 -8 3 -5 6 6 6 11
1 17 -2 13 -5z m-4254 -66 c5 -19 5 -19 -14 -2 -22 20 -25 36 -5 28 8 -3 16
-14 19 -26z m4237 19 c19 -6 49 -22 67 -34 17 -13 41 -23 52 -23 26 0 26 -8 1
-40 -11 -14 -20 -33 -20 -42 0 -43 -34 -7 -44 47 -7 37 -9 38 -42 20 -16 -8
-39 -15 -51 -15 -12 0 -25 -4 -28 -10 -23 -37 -34 22 -14 79 12 34 25 37 79
18z m245 -59 c6 -24 4 -28 -13 -28 -25 0 -32 18 -20 49 10 28 23 20 33 -21z
m-741 17 c22 -16 16 -29 -24 -49 -28 -13 -31 -13 -41 5 -24 46 21 77 65 44z
m56 -39 c0 -3 -4 -8 -10 -11 -5 -3 -10 -1 -10 4 0 6 5 11 10 11 6 0 10 -2 10
-4z m960 -36 c-19 -12 -30 -12 -30 -1 0 10 31 20 40 14 2 -2 -2 -8 -10 -13z
m285 -41 c11 -9 63 -42 115 -71 52 -30 105 -62 118 -73 38 -33 24 -38 -20 -7
-24 16 -72 44 -108 62 -68 34 -165 105 -175 129 -6 15 34 -8 70 -40z m2360 -9
c15 -6 9 -9 -25 -9 -34 0 -40 3 -25 9 11 5 22 9 25 9 3 0 14 -4 25 -9z m-2685
-138 c0 -15 -2 -15 -10 -2 -13 20 -13 33 0 25 6 -3 10 -14 10 -23z m-5661
-164 c129 -66 331 -336 331 -444 0 -48 -56 -135 -72 -112 -8 10 -9 9 -5 -4 3
-9 0 -21 -7 -27 -18 -15 -43 -78 -51 -125 -6 -36 -8 -38 -36 -32 -17 3 -40 1
-51 -5 -17 -9 -25 -6 -52 20 -40 39 -55 39 -93 -1 -103 -113 -237 -206 -348
-244 -58 -19 -93 -8 -144 44 -31 32 -33 38 -29 88 4 42 12 62 43 101 53 67
107 115 203 179 63 43 82 61 82 78 0 26 22 36 83 36 20 0 37 4 37 9 0 4 -23
38 -50 75 -92 123 -140 240 -120 292 14 35 66 83 100 90 14 3 30 7 35 9 27 7
105 -7 144 -27z m-2695 -10 c52 -16 132 -90 162 -149 43 -86 30 -209 -33 -311
-13 -21 -23 -40 -23 -44 0 -3 -18 -29 -40 -56 -22 -28 -40 -56 -40 -63 0 -7
13 -42 30 -77 45 -96 37 -173 -21 -204 -56 -29 -98 -13 -190 72 -32 30 -68 54
-79 54 -12 0 -38 25 -73 73 -29 39 -72 93 -94 119 -22 25 -58 75 -79 110 -36
58 -39 68 -39 138 0 64 5 85 32 141 68 141 217 225 378 214 39 -2 87 -10 109
-17z m6466 -290 c63 -10 142 -22 175 -27 33 -5 123 -19 200 -30 77 -12 203
-31 280 -42 77 -11 165 -24 195 -29 30 -5 165 -25 300 -45 135 -20 270 -40
300 -45 30 -5 75 -11 100 -15 25 -3 72 -10 105 -15 33 -6 155 -24 270 -41 181
-26 212 -34 227 -52 13 -17 19 -19 30 -9 8 6 17 9 20 6 3 -3 23 -7 44 -9 22
-2 48 -5 59 -8 11 -3 27 -6 34 -6 11 -1 12 -4 4 -12 -12 -12 -194 5 -225 22
-15 7 -82 20 -278 50 -36 5 -90 14 -120 20 -30 5 -181 27 -335 50 -154 22
-305 44 -335 49 -107 17 -186 29 -330 50 -80 12 -172 26 -205 31 -33 6 -85 14
-115 18 -315 47 -536 84 -558 93 -25 10 -26 11 -7 18 11 5 27 6 35 3 8 -3 67
-14 130 -25z m-407 -105 c-7 -2 -21 -2 -30 0 -10 3 -4 5 12 5 17 0 24 -2 18
-5z m-86 -56 c-6 -17 -55 -29 -63 -16 -3 5 4 9 15 9 11 0 26 6 33 14 15 16 23
13 15 -7z m-80 -53 c-3 -3 -12 -4 -19 -1 -8 3 -5 6 6 6 11 1 17 -2 13 -5z
m110 -20 c-3 -3 -12 -4 -19 -1 -8 3 -5 6 6 6 11 1 17 -2 13 -5z m-102 -34 c-3
-5 -14 -10 -23 -9 -14 0 -13 2 3 9 27 11 27 11 20 0z m1992 -156 c-3 -3 -12
-4 -19 -1 -8 3 -5 6 6 6 11 1 17 -2 13 -5z m-3623 -38 c18 -9 22 -15 13 -19
-13 -5 -47 14 -47 27 0 9 4 8 34 -8z m3931 -16 c4 -6 -5 -10 -19 -10 -14 0
-26 5 -26 10 0 6 9 10 19 10 11 0 23 -4 26 -10z m-3827 -17 c-10 -2 -26 -2
-35 0 -10 3 -2 5 17 5 19 0 27 -2 18 -5z m3976 -2 c6 -10 -33 -23 -46 -15 -4
3 -8 9 -8 15 0 12 47 12 54 0z m-3886 -18 c-10 -2 -28 -2 -40 0 -13 2 -5 4 17
4 22 1 32 -1 23 -4z m4040 -6 c47 -14 46 -27 -2 -27 -32 1 -71 22 -59 33 8 9
11 9 61 -6z m-3957 -16 c-12 -8 -51 -4 -51 5 0 2 15 4 33 4 22 0 28 -3 18 -9z
m89 -17 c0 -2 -17 -4 -37 -3 -33 1 -35 2 -13 8 23 7 50 4 50 -5z m79 -20 c2
-2 -10 -4 -27 -4 -18 0 -32 5 -32 10 0 9 47 4 59 -6z m3641 2 c0 -2 -9 -6 -20
-9 -11 -3 -20 -1 -20 4 0 5 9 9 20 9 11 0 20 -2 20 -4z m-3570 -16 c12 -8 9
-10 -12 -10 -16 0 -28 5 -28 10 0 13 20 13 40 0z m3427 -26 c-3 -3 -12 -4 -19
-1 -8 3 -5 6 6 6 11 1 17 -2 13 -5z m-3277 -14 c8 -5 11 -10 5 -10 -5 0 -17 5
-25 10 -8 5 -10 10 -5 10 6 0 17 -5 25 -10z m90 -14 c0 -3 -4 -8 -10 -11 -5
-3 -10 -1 -10 4 0 6 5 11 10 11 6 0 10 -2 10 -4z m83 -23 c-7 -2 -19 -2 -25 0
-7 3 -2 5 12 5 14 0 19 -2 13 -5z m160 -40 c-7 -2 -19 -2 -25 0 -7 3 -2 5 12
5 14 0 19 -2 13 -5z m80 -20 c-7 -2 -19 -2 -25 0 -7 3 -2 5 12 5 14 0 19 -2
13 -5z"/>
<path d="M21780 2723 c0 -15 82 -103 96 -103 21 0 17 11 -19 51 -32 36 -77 66
-77 52z"/>
<path d="M22205 2721 c-3 -6 -16 -11 -28 -12 -13 -1 -5 -5 17 -10 22 -5 46
-15 54 -21 12 -10 14 -9 11 6 -5 24 -45 51 -54 37z"/>
<path d="M21720 2647 c0 -30 83 -118 97 -103 5 5 -83 116 -93 116 -2 0 -4 -6
-4 -13z"/>
<path d="M15065 2660 c-16 -11 -44 -20 -61 -20 -17 0 -43 -9 -57 -20 -30 -24
-80 -109 -73 -126 2 -6 -11 -29 -30 -49 -39 -43 -46 -70 -9 -35 14 13 25 20
25 16 0 -14 -65 -66 -82 -66 -24 0 -23 -17 1 -30 15 -7 33 -4 78 16 32 15 71
26 87 26 17 0 66 17 111 39 45 21 86 39 92 39 21 0 73 32 93 57 17 22 22 24
36 12 15 -12 15 -10 -1 21 -29 57 -57 93 -64 81 -4 -6 -24 4 -50 24 -51 41
-56 41 -96 15z"/>
<path d="M15120 2415 c-7 -9 -11 -18 -8 -20 9 -10 38 7 38 21 0 18 -14 18 -30
-1z"/>
<path d="M14411 1909 c-28 -11 -26 -14 12 -23 20 -5 27 -3 27 8 0 21 -11 25
-39 15z"/>
<path d="M15341 1877 c-6 -8 -6 -18 -1 -27 7 -11 11 -11 24 -1 9 8 16 17 16
21 0 14 -28 19 -39 7z"/>
<path d="M16000 1785 c-9 -11 -10 -19 -3 -26 7 -7 14 -5 23 6 9 11 10 19 3 26
-7 7 -14 5 -23 -6z"/>
<path d="M8117 2512 c-30 -32 -21 -42 38 -42 46 0 55 3 55 18 0 42 -63 58 -93
24z"/>
<path d="M9188 2399 c-27 -15 -23 -57 6 -65 37 -9 66 12 66 46 0 26 -4 30 -27
30 -16 0 -36 -5 -45 -11z"/>
<path d="M10370 2522 c-28 -8 -40 -35 -40 -89 0 -78 45 -116 94 -80 26 19 34
108 13 141 -17 25 -42 36 -67 28z"/>
<path d="M11502 2398 c-21 -21 -14 -57 12 -64 37 -9 66 12 66 46 0 27 -3 30
-33 30 -18 0 -38 -5 -45 -12z"/>
<path d="M12366 2508 c-24 -34 -20 -38 39 -38 46 0 55 3 55 18 0 45 -67 59
-94 20z"/>
<path d="M24218 2343 c7 -3 16 -2 19 1 4 3 -2 6 -13 5 -11 0 -14 -3 -6 -6z"/>
<path d="M24134 2316 c-3 -13 -4 -35 -1 -47 3 -17 5 -14 6 12 0 19 6 40 13 47
9 9 9 12 0 12 -6 0 -14 -11 -18 -24z"/>
<path d="M24257 2330 c6 -8 13 -26 16 -40 l4 -25 2 26 c0 15 -7 33 -16 40 -16
12 -17 12 -6 -1z"/>
<path d="M24239 2204 c-7 -9 -22 -20 -34 -24 -14 -6 -15 -9 -4 -9 8 -1 26 10
39 24 13 14 21 25 18 25 -3 0 -12 -7 -19 -16z"/>
<path d="M24370 2205 c14 -7 28 -26 31 -42 l7 -28 1 27 c1 26 -29 58 -54 58
-5 -1 1 -7 15 -15z"/>
<path d="M25482 2200 c-32 -30 -27 -38 6 -9 15 13 29 25 31 27 2 1 0 2 -5 2
-6 0 -20 -9 -32 -20z"/>
<path d="M24098 2203 c7 -3 16 -2 19 1 4 3 -2 6 -13 5 -11 0 -14 -3 -6 -6z"/>
<path d="M24261 2181 c-17 -16 -31 -33 -31 -38 0 -5 15 -22 33 -39 l32 -29
-29 32 c-18 20 -25 36 -20 45 9 15 40 40 64 50 13 6 13 7 -1 7 -9 1 -31 -12
-48 -28z"/>
<path d="M24004 2186 c-3 -8 -4 -27 -2 -43 3 -23 5 -20 9 15 5 43 2 53 -7 28z"/>
<path d="M24166 2133 c-6 -14 -5 -15 5 -6 7 7 10 15 7 18 -3 3 -9 -2 -12 -12z"/>
<path d="M24401 2114 c0 -11 3 -14 6 -6 3 7 2 16 -1 19 -3 4 -6 -2 -5 -13z"/>
<path d="M24196 2112 c-3 -5 1 -9 9 -9 8 0 12 4 9 9 -3 4 -7 8 -9 8 -2 0 -6
-4 -9 -8z"/>
<path d="M25475 2090 c10 -11 20 -20 23 -20 3 0 -3 9 -13 20 -10 11 -20 20
-23 20 -3 0 3 -9 13 -20z"/>
<path d="M24156 2081 c-10 -11 -16 -25 -14 -31 2 -6 11 3 21 20 21 34 18 39
-7 11z"/>
<path d="M24245 2077 c10 -15 20 -25 23 -22 3 3 -5 16 -17 28 l-23 22 17 -28z"/>
<path d="M25939 2083 c-13 -16 -12 -17 4 -4 16 13 21 21 13 21 -2 0 -10 -8
-17 -17z"/>
<path d="M24132 2010 c0 -14 2 -19 5 -12 2 6 2 18 0 25 -3 6 -5 1 -5 -13z"/>
<path d="M25650 2015 c-7 -9 -11 -17 -9 -20 3 -2 10 5 17 15 14 24 10 26 -8 5z"/>
<path d="M25655 1910 c10 -11 20 -20 23 -20 3 0 -3 9 -13 20 -10 11 -20 20
-23 20 -3 0 3 -9 13 -20z"/>
<path d="M25759 1903 c-13 -16 -12 -17 4 -4 9 7 17 15 17 17 0 8 -8 3 -21 -13z"/>
<path d="M21265 2150 c3 -5 8 -10 11 -10 2 0 4 5 4 10 0 6 -5 10 -11 10 -5 0
-7 -4 -4 -10z"/>
<path d="M16390 1153 c0 -5 8 -9 19 -10 10 -1 44 -18 76 -38 72 -46 83 -40 15
9 -50 36 -110 57 -110 39z"/>
<path d="M16535 1013 c-21 -26 -33 -44 -25 -41 16 5 76 76 69 82 -2 2 -22 -16
-44 -41z"/>
<path d="M13730 1669 c-14 -10 -31 -19 -37 -19 -22 0 -90 -69 -108 -108 -9
-20 -30 -63 -46 -94 -23 -46 -29 -70 -29 -122 0 -36 4 -67 8 -70 5 -3 28 2 52
10 35 12 45 13 51 2 6 -10 -1 -14 -26 -16 -34 -3 -49 -21 -20 -23 23 -2 28 -4
53 -17 32 -18 154 -6 212 21 75 34 99 56 132 120 17 34 39 73 49 86 34 42 19
155 -24 189 -6 5 -29 12 -50 15 -20 3 -44 13 -53 21 -8 9 -21 16 -27 16 -7 1
-35 3 -62 5 -38 3 -56 -1 -75 -16z m7 -386 c27 -17 43 -63 23 -63 -6 0 -10 6
-10 13 0 8 -3 7 -10 -3 -5 -8 -13 -11 -17 -6 -4 4 1 14 11 22 15 10 16 14 5
14 -8 0 -20 -5 -26 -11 -8 -8 -13 -8 -17 0 -4 6 -2 11 3 11 15 0 14 27 -1 33
-10 4 -10 6 -1 6 7 1 25 -7 40 -16z"/>
<path d="M13521 1494 c0 -11 3 -14 6 -6 3 7 2 16 -1 19 -3 4 -6 -2 -5 -13z"/>
<path d="M13836 1035 c-9 -26 -7 -32 5 -12 6 10 9 21 6 23 -2 3 -7 -2 -11 -11z"/>
</g>
</svg>
